<mxfile host="app.diagrams.net" modified="2024-02-12T04:44:30.067Z" agent="Mozilla/5.0 (Windows NT 10.0; Win64; x64) AppleWebKit/537.36 (KHTML, like Gecko) Chrome/121.0.0.0 Safari/537.36" etag="S4QKK-dzsBT0C36WAIc8" version="23.1.2" type="gitlab">
  <diagram name="Page-1" id="M9-DjCQOEVHu-5RRC947">
    <mxGraphModel dx="-118" dy="1711" grid="1" gridSize="10" guides="1" tooltips="1" connect="1" arrows="1" fold="1" page="1" pageScale="1" pageWidth="850" pageHeight="1100" math="0" shadow="0">
      <root>
        <mxCell id="0" />
        <mxCell id="1" parent="0" />
        <mxCell id="6xfGoNgD9KqAvD5Vljvx-49" value="&#xa;&lt;span style=&quot;color: rgb(255, 255, 255); font-family: Helvetica; font-size: 16px; font-style: normal; font-variant-ligatures: normal; font-variant-caps: normal; font-weight: 400; letter-spacing: normal; orphans: 2; text-align: left; text-indent: 0px; text-transform: none; widows: 2; word-spacing: 0px; -webkit-text-stroke-width: 0px; background-color: rgb(251, 251, 251); text-decoration-thickness: initial; text-decoration-style: initial; text-decoration-color: initial; float: none; display: inline !important;&quot;&gt;CarPrice&lt;/span&gt;&#xa;&#xa;" style="strokeWidth=1;shadow=0;dashed=0;align=center;html=1;shape=mxgraph.mockup.containers.browserWindow;rSize=0;strokeColor=#FFFFFF;mainText=,;recursiveResize=0;rounded=0;labelBackgroundColor=none;fontFamily=Verdana;fontSize=12;gradientColor=#e4e2e2;labelPadding=0;strokeOpacity=100;" vertex="1" parent="1">
          <mxGeometry x="2470" y="80" width="1110" height="990" as="geometry" />
        </mxCell>
        <mxCell id="6xfGoNgD9KqAvD5Vljvx-50" value="Login" style="strokeWidth=1;shadow=0;dashed=0;align=center;html=1;shape=mxgraph.mockup.containers.anchor;fontSize=17;fontColor=#666666;align=left;" vertex="1" parent="6xfGoNgD9KqAvD5Vljvx-49">
          <mxGeometry x="60" y="10" width="180" height="28" as="geometry" />
        </mxCell>
        <mxCell id="6xfGoNgD9KqAvD5Vljvx-51" value="https://login" style="strokeWidth=1;shadow=0;dashed=0;align=center;html=1;shape=mxgraph.mockup.containers.anchor;rSize=0;fontSize=17;fontColor=#666666;align=left;" vertex="1" parent="6xfGoNgD9KqAvD5Vljvx-49">
          <mxGeometry x="130" y="60" width="250" height="26" as="geometry" />
        </mxCell>
        <mxCell id="6xfGoNgD9KqAvD5Vljvx-52" value="VG-15 Classification" style="html=1;shadow=0;dashed=0;fillColor=#546869;strokeColor=none;fontSize=16;fontColor=#ffffff;align=left;spacing=15;" vertex="1" parent="6xfGoNgD9KqAvD5Vljvx-49">
          <mxGeometry y="110" width="1110" height="60" as="geometry" />
        </mxCell>
        <mxCell id="6xfGoNgD9KqAvD5Vljvx-53" value="Login" style="fillColor=none;strokeColor=none;fontSize=14;fontColor=#ffffff;align=center;" vertex="1" parent="6xfGoNgD9KqAvD5Vljvx-52">
          <mxGeometry width="70" height="50" relative="1" as="geometry">
            <mxPoint x="940" y="5" as="offset" />
          </mxGeometry>
        </mxCell>
        <mxCell id="6xfGoNgD9KqAvD5Vljvx-54" value="Register" style="fillColor=none;strokeColor=none;fontSize=14;fontColor=#ffffff;align=center;" vertex="1" parent="6xfGoNgD9KqAvD5Vljvx-52">
          <mxGeometry x="1020" y="5" width="70" height="50" as="geometry" />
        </mxCell>
        <mxCell id="6xfGoNgD9KqAvD5Vljvx-55" value="Home" style="fillColor=none;strokeColor=none;fontSize=14;fontColor=#ffffff;align=center;" vertex="1" parent="6xfGoNgD9KqAvD5Vljvx-52">
          <mxGeometry x="420" y="5" width="70" height="50" as="geometry" />
        </mxCell>
        <mxCell id="6xfGoNgD9KqAvD5Vljvx-56" value="Predict" style="fillColor=none;strokeColor=none;fontSize=14;fontColor=#ffffff;align=center;" vertex="1" parent="6xfGoNgD9KqAvD5Vljvx-52">
          <mxGeometry x="480" y="5" width="70" height="50" as="geometry" />
        </mxCell>
        <mxCell id="6xfGoNgD9KqAvD5Vljvx-57" value="Visualisation" style="fillColor=none;strokeColor=none;fontSize=14;fontColor=#ffffff;align=center;" vertex="1" parent="6xfGoNgD9KqAvD5Vljvx-52">
          <mxGeometry x="560" y="5" width="70" height="50" as="geometry" />
        </mxCell>
        <mxCell id="6xfGoNgD9KqAvD5Vljvx-58" value="" style="shape=ext;double=1;rounded=0;whiteSpace=wrap;html=1;fillColor=#CCFFFF;" vertex="1" parent="1">
          <mxGeometry x="2470" y="250" width="1110" height="810" as="geometry" />
        </mxCell>
        <mxCell id="6xfGoNgD9KqAvD5Vljvx-59" value="" style="shape=ext;double=1;rounded=1;whiteSpace=wrap;html=1;strokeColor=#006666;fillColor=#67AB9F;" vertex="1" parent="1">
          <mxGeometry x="2780" y="460" width="490" height="300" as="geometry" />
        </mxCell>
        <mxCell id="6xfGoNgD9KqAvD5Vljvx-60" value="&lt;font color=&quot;#ffffff&quot; style=&quot;font-size: 30px;&quot;&gt;&lt;b&gt;LOGIN&lt;/b&gt;&lt;/font&gt;" style="text;html=1;strokeColor=none;fillColor=none;align=center;verticalAlign=middle;whiteSpace=wrap;rounded=0;" vertex="1" parent="1">
          <mxGeometry x="2870" y="490" width="280" height="30" as="geometry" />
        </mxCell>
        <mxCell id="6xfGoNgD9KqAvD5Vljvx-61" value="Email" style="fillColor=none;strokeColor=none;align=left;fontSize=14;fontColor=#212529;" vertex="1" parent="1">
          <mxGeometry x="2810" y="560" width="200" height="30" as="geometry" />
        </mxCell>
        <mxCell id="6xfGoNgD9KqAvD5Vljvx-62" value="" style="html=1;shadow=1;dashed=0;shape=mxgraph.bootstrap.rrect;rSize=5;fillColor=none;strokeColor=#999999;align=left;spacing=15;fontSize=14;fontColor=#6C767D;" vertex="1" parent="1">
          <mxGeometry x="2890" y="560" width="320" height="30" as="geometry" />
        </mxCell>
        <mxCell id="6xfGoNgD9KqAvD5Vljvx-63" value="Password" style="fillColor=none;strokeColor=none;align=left;fontSize=14;fontColor=#212529;" vertex="1" parent="1">
          <mxGeometry x="2810" y="600" width="200" height="30" as="geometry" />
        </mxCell>
        <mxCell id="6xfGoNgD9KqAvD5Vljvx-64" value="" style="html=1;shadow=1;dashed=0;shape=mxgraph.bootstrap.rrect;rSize=5;fillColor=none;strokeColor=#999999;align=left;spacing=15;fontSize=14;fontColor=#6C767D;" vertex="1" parent="1">
          <mxGeometry x="2890" y="600" width="320" height="30" as="geometry" />
        </mxCell>
        <mxCell id="6xfGoNgD9KqAvD5Vljvx-65" value="Sign in" style="html=1;shadow=0;dashed=0;shape=mxgraph.bootstrap.rrect;rSize=5;fillColor=#647687;strokeColor=#314354;align=center;fontSize=14;fontColor=#ffffff;sketch=0;" vertex="1" parent="1">
          <mxGeometry x="2930" y="685" width="190" height="40" as="geometry" />
        </mxCell>
        <mxCell id="6xfGoNgD9KqAvD5Vljvx-66" value="&lt;u&gt;Register&lt;/u&gt;" style="text;html=1;strokeColor=none;fillColor=none;align=center;verticalAlign=middle;whiteSpace=wrap;rounded=0;" vertex="1" parent="1">
          <mxGeometry x="3150" y="690" width="60" height="30" as="geometry" />
        </mxCell>
        <mxCell id="6xfGoNgD9KqAvD5Vljvx-67" value="&lt;b style=&quot;&quot;&gt;&lt;font color=&quot;#121111&quot;&gt;Login to &lt;/font&gt;&lt;font color=&quot;#006633&quot;&gt;VG15&lt;/font&gt;&lt;/b&gt;" style="text;html=1;points=[];align=left;verticalAlign=top;spacingTop=-4;fontSize=30;fontFamily=Verdana" vertex="1" parent="1">
          <mxGeometry x="2890" y="390" width="340" height="50" as="geometry" />
        </mxCell>
        <mxCell id="6xfGoNgD9KqAvD5Vljvx-68" value="&lt;span style=&quot;color: rgb(0, 0, 0); font-family: Helvetica; font-size: 30px; font-style: normal; font-variant-ligatures: normal; font-variant-caps: normal; font-weight: 700; letter-spacing: normal; orphans: 2; text-align: center; text-indent: 0px; text-transform: none; widows: 2; word-spacing: 0px; -webkit-text-stroke-width: 0px; background-color: rgb(251, 251, 251); text-decoration-thickness: initial; text-decoration-style: initial; text-decoration-color: initial; float: none; display: inline !important;&quot;&gt;Login Page&lt;/span&gt;" style="text;whiteSpace=wrap;html=1;" vertex="1" parent="1">
          <mxGeometry x="2880" y="20" width="230" height="60" as="geometry" />
        </mxCell>
      </root>
    </mxGraphModel>
  </diagram>
</mxfile>
